<?plantuml 1.2026.2?>
<svg xmlns="http://www.w3.org/2000/svg" xmlns:xlink="http://www.w3.org/1999/xlink" contentStyleType="text/css"
     data-diagram-type="CLASS" height="558px" preserveAspectRatio="none"
     style="width:1224px;height:558px;background:#FFFFFF;" version="1.1" viewBox="0 0 1224 558" width="1224px"
     zoomAndPan="magnify">
    <defs/>
    <g><!--cluster save-->
        <g class="cluster" id="ent0002">
            <path d="M8.5,6.0137 L40.6445,6.0137 A3.75,3.75 0 0 1 43.1445,8.5137 L50.1445,30.6348 L641.5,30.6348 A2.5,2.5 0 0 1 644,33.1348 L644,548.5137 A2.5,2.5 0 0 1 641.5,551.0137 L8.5,551.0137 A2.5,2.5 0 0 1 6,548.5137 L6,8.5137 A2.5,2.5 0 0 1 8.5,6.0137"
                  fill="none" style="stroke:#000000;stroke-width:1.5;"/>
            <line style="stroke:#000000;stroke-width:1.5;" x1="6" x2="50.1445" y1="30.6348" y2="30.6348"/>
            <text fill="#000000" font-family="sans-serif" font-size="14" font-weight="bold" lengthAdjust="spacing"
                  textLength="31.1445" x="10" y="23.1211">save
            </text>
        </g><!--class SaveMeta-->
        <g class="entity" id="ent0003">
            <rect fill="#F1F1F1" height="364.5586" rx="2.5" ry="2.5" style="stroke:#181818;stroke-width:0.5;"
                  width="604.9492" x="22.5" y="170.0137"/>
            <ellipse cx="289.2075" cy="186.0137" fill="#ADD1B2" rx="11" ry="11" style="stroke:#181818;stroke-width:1;"/>
            <path d="M291.9731,181.8887 Q292.1294,181.6699 292.3169,181.5605 Q292.5044,181.4512 292.7231,181.4512 Q293.0981,181.4512 293.3325,181.7168 Q293.5669,181.9668 293.5669,182.5762 L293.5669,184.0293 Q293.5669,184.6387 293.3325,184.9043 Q293.0981,185.1699 292.7231,185.1699 Q292.3794,185.1699 292.1763,184.9668 Q291.9731,184.7793 291.8638,184.2637 Q291.8169,183.9043 291.6294,183.7168 Q291.3013,183.3418 290.6919,183.123 Q290.0825,182.9043 289.4575,182.9043 Q288.6919,182.9043 288.0513,183.2324 Q287.4263,183.5605 286.9263,184.3105 Q286.4419,185.0605 286.4419,186.0918 L286.4419,187.1855 Q286.4419,188.4199 287.3325,189.248 Q288.2231,190.0605 289.8169,190.0605 Q290.7544,190.0605 291.4106,189.8105 Q291.8013,189.6543 292.2231,189.2168 Q292.4888,188.9512 292.6294,188.873 Q292.7856,188.7949 292.9888,188.7949 Q293.3169,188.7949 293.5669,189.0605 Q293.8325,189.3105 293.8325,189.6543 Q293.8325,189.998 293.4888,190.4043 Q292.9888,190.9824 292.1919,191.3105 Q291.1138,191.7637 289.8169,191.7637 Q288.3013,191.7637 287.0981,191.1387 Q286.1138,190.6387 285.4263,189.5762 Q284.7388,188.498 284.7388,187.2168 L284.7388,186.0605 Q284.7388,184.7324 285.3481,183.5918 Q285.9731,182.4355 287.0669,181.8262 Q288.1606,181.2012 289.395,181.2012 Q290.1294,181.2012 290.77,181.373 Q291.4263,181.5293 291.9731,181.8887 Z "
                  fill="#000000"/>
            <text fill="#000000" font-family="sans-serif" font-size="14" lengthAdjust="spacing" textLength="63.0342"
                  x="309.7075" y="191.8105">SaveMeta
            </text>
            <line style="stroke:#181818;stroke-width:0.5;" x1="23.5" x2="626.4492" y1="202.0137" y2="202.0137"/>
            <g>
                <rect fill="none" height="6" style="stroke:#C82930;stroke-width:1;" width="6" x="30.5" y="213.8242"/>
            </g>
            <text fill="#000000" font-family="sans-serif" font-size="14" lengthAdjust="spacing" textLength="93.3926"
                  x="42.5" y="221.1211">exists: boolean
            </text>
            <g>
                <rect fill="none" height="6" style="stroke:#C82930;stroke-width:1;" width="6" x="30.5" y="232.4453"/>
            </g>
            <text fill="#000000" font-family="sans-serif" font-size="14" lengthAdjust="spacing" textLength="38.1377"
                  x="42.5" y="239.7422">hp: int
            </text>
            <g>
                <rect fill="none" height="6" style="stroke:#C82930;stroke-width:1;" width="6" x="30.5" y="251.0664"/>
            </g>
            <text fill="#000000" font-family="sans-serif" font-size="14" lengthAdjust="spacing" textLength="66.9102"
                  x="42.5" y="258.3633">maxHp: int
            </text>
            <g>
                <rect fill="none" height="6" style="stroke:#C82930;stroke-width:1;" width="6" x="30.5" y="269.6875"/>
            </g>
            <text fill="#000000" font-family="sans-serif" font-size="14" lengthAdjust="spacing" textLength="81.71"
                  x="42.5" y="276.9844">facing: String
            </text>
            <g>
                <rect fill="none" height="6" style="stroke:#C82930;stroke-width:1;" width="6" x="30.5" y="288.3086"/>
            </g>
            <text fill="#000000" font-family="sans-serif" font-size="14" lengthAdjust="spacing" textLength="102.71"
                  x="42.5" y="295.6055">spriteKey: String
            </text>
            <g>
                <rect fill="none" height="6" style="stroke:#C82930;stroke-width:1;" width="6" x="30.5" y="306.9297"/>
            </g>
            <text fill="#000000" font-family="sans-serif" font-size="14" lengthAdjust="spacing" textLength="84.834"
                  x="42.5" y="314.2266">savedAt: long
            </text>
            <g>
                <rect fill="none" height="6" style="stroke:#C82930;stroke-width:1;" width="6" x="30.5" y="325.5508"/>
            </g>
            <text fill="#000000" font-family="sans-serif" font-size="14" lengthAdjust="spacing" textLength="145.5234"
                  x="42.5" y="332.8477">playTimeSeconds: long
            </text>
            <line style="stroke:#181818;stroke-width:0.5;" x1="23.5" x2="626.4492" y1="340.3613" y2="340.3613"/>
            <g>
                <ellipse cx="33.5" cy="355.1719" fill="#84BE84" rx="3" ry="3" style="stroke:#038048;stroke-width:1;"/>
            </g>
            <text fill="#000000" font-family="sans-serif" font-size="14" lengthAdjust="spacing" textLength="72.3584"
                  x="42.5" y="359.4688">SaveMeta()
            </text>
            <g>
                <ellipse cx="33.5" cy="373.793" fill="#84BE84" rx="3" ry="3" style="stroke:#038048;stroke-width:1;"/>
            </g>
            <text fill="#000000" font-family="sans-serif" font-size="14" lengthAdjust="spacing" textLength="578.9492"
                  x="42.5" y="378.0898">SaveMeta(exists: boolean, hp: int, maxHp: int, facing: String, spriteKey:
                String, savedAt: long)
            </text>
            <g>
                <ellipse cx="33.5" cy="392.4141" fill="#84BE84" rx="3" ry="3" style="stroke:#038048;stroke-width:1;"/>
            </g>
            <text fill="#000000" font-family="sans-serif" font-size="14" lengthAdjust="spacing" textLength="102.7168"
                  x="42.5" y="396.7109">exists(): boolean
            </text>
            <g>
                <ellipse cx="33.5" cy="411.0352" fill="#84BE84" rx="3" ry="3" style="stroke:#038048;stroke-width:1;"/>
            </g>
            <text fill="#000000" font-family="sans-serif" font-size="14" lengthAdjust="spacing" textLength="69.248"
                  x="42.5" y="415.332">getHp(): int
            </text>
            <g>
                <ellipse cx="33.5" cy="429.6563" fill="#84BE84" rx="3" ry="3" style="stroke:#038048;stroke-width:1;"/>
            </g>
            <text fill="#000000" font-family="sans-serif" font-size="14" lengthAdjust="spacing" textLength="95.6963"
                  x="42.5" y="433.9531">getMaxHp(): int
            </text>
            <g>
                <ellipse cx="33.5" cy="448.2773" fill="#84BE84" rx="3" ry="3" style="stroke:#038048;stroke-width:1;"/>
            </g>
            <text fill="#000000" font-family="sans-serif" font-size="14" lengthAdjust="spacing" textLength="115.1582"
                  x="42.5" y="452.5742">getFacing(): String
            </text>
            <g>
                <ellipse cx="33.5" cy="466.8984" fill="#84BE84" rx="3" ry="3" style="stroke:#038048;stroke-width:1;"/>
            </g>
            <text fill="#000000" font-family="sans-serif" font-size="14" lengthAdjust="spacing" textLength="115.958"
                  x="42.5" y="471.1953">getSavedAt(): long
            </text>
            <g>
                <ellipse cx="33.5" cy="485.5195" fill="#84BE84" rx="3" ry="3" style="stroke:#038048;stroke-width:1;"/>
            </g>
            <text fill="#000000" font-family="sans-serif" font-size="14" lengthAdjust="spacing" textLength="133.834"
                  x="42.5" y="489.8164">getSpriteKey(): String
            </text>
            <g>
                <ellipse cx="33.5" cy="504.1406" fill="#84BE84" rx="3" ry="3" style="stroke:#038048;stroke-width:1;"/>
            </g>
            <text fill="#000000" font-family="sans-serif" font-size="14" lengthAdjust="spacing" textLength="175.8613"
                  x="42.5" y="508.4375">getPlayTimeSeconds(): long
            </text>
            <g>
                <ellipse cx="33.5" cy="522.7617" fill="#84BE84" rx="3" ry="3" style="stroke:#038048;stroke-width:1;"/>
            </g>
            <text fill="#000000" font-family="sans-serif" font-size="14" lengthAdjust="spacing" textLength="319.8125"
                  x="42.5" y="527.0586">setPlayTimeSeconds(playTimeSeconds: long): void
            </text>
        </g><!--class SaveManager-->
        <g class="entity" id="ent0004">
            <rect fill="#F1F1F1" height="48" rx="2.5" ry="2.5" style="stroke:#181818;stroke-width:0.5;" width="119.165"
                  x="265.5" y="43.0137"/>
            <ellipse cx="280.5" cy="59.0137" fill="#ADD1B2" rx="11" ry="11" style="stroke:#181818;stroke-width:1;"/>
            <path d="M283.2656,54.8887 Q283.4219,54.6699 283.6094,54.5605 Q283.7969,54.4512 284.0156,54.4512 Q284.3906,54.4512 284.625,54.7168 Q284.8594,54.9668 284.8594,55.5762 L284.8594,57.0293 Q284.8594,57.6387 284.625,57.9043 Q284.3906,58.1699 284.0156,58.1699 Q283.6719,58.1699 283.4688,57.9668 Q283.2656,57.7793 283.1563,57.2637 Q283.1094,56.9043 282.9219,56.7168 Q282.5938,56.3418 281.9844,56.123 Q281.375,55.9043 280.75,55.9043 Q279.9844,55.9043 279.3438,56.2324 Q278.7188,56.5605 278.2188,57.3105 Q277.7344,58.0605 277.7344,59.0918 L277.7344,60.1855 Q277.7344,61.4199 278.625,62.248 Q279.5156,63.0605 281.1094,63.0605 Q282.0469,63.0605 282.7031,62.8105 Q283.0938,62.6543 283.5156,62.2168 Q283.7813,61.9512 283.9219,61.873 Q284.0781,61.7949 284.2813,61.7949 Q284.6094,61.7949 284.8594,62.0605 Q285.125,62.3105 285.125,62.6543 Q285.125,62.998 284.7813,63.4043 Q284.2813,63.9824 283.4844,64.3105 Q282.4063,64.7637 281.1094,64.7637 Q279.5938,64.7637 278.3906,64.1387 Q277.4063,63.6387 276.7188,62.5762 Q276.0313,61.498 276.0313,60.2168 L276.0313,59.0605 Q276.0313,57.7324 276.6406,56.5918 Q277.2656,55.4355 278.3594,54.8262 Q279.4531,54.2012 280.6875,54.2012 Q281.4219,54.2012 282.0625,54.373 Q282.7188,54.5293 283.2656,54.8887 Z "
                  fill="#000000"/>
            <text fill="#000000" font-family="sans-serif" font-size="14" lengthAdjust="spacing" textLength="87.165"
                  x="294.5" y="64.8105">SaveManager
            </text>
            <line style="stroke:#181818;stroke-width:0.5;" x1="266.5" x2="383.665" y1="75.0137" y2="75.0137"/>
            <line style="stroke:#181818;stroke-width:0.5;" x1="266.5" x2="383.665" y1="83.0137" y2="83.0137"/>
        </g>
        <g class="entity" id="ent0007">
            <path d="M662.5,278.5137 L662.5,348.5137 L627.7,352.5137 L662.5,356.5137 L662.5,426.8418 A0,0 0 0 0 662.5,426.8418 L1217.5093,426.8418 A0,0 0 0 0 1217.5093,426.8418 L1217.5093,288.5137 L1207.5093,278.5137 L662.5,278.5137 A0,0 0 0 0 662.5,278.5137"
                  fill="#FEFFDD" style="stroke:#181818;stroke-width:0.5;"/>
            <path d="M1207.5093,278.5137 L1207.5093,288.5137 L1217.5093,288.5137 L1207.5093,278.5137" fill="#FEFFDD"
                  style="stroke:#181818;stroke-width:0.5;"/>
            <text fill="#000000" font-family="sans-serif" font-size="13" font-weight="bold" lengthAdjust="spacing"
                  textLength="36.1182" x="668.5" y="297.542">Notes
            </text>
            <text fill="#000000" font-family="sans-serif" font-size="13" lengthAdjust="spacing" textLength="356.0908"
                  x="668.5" y="314.833">- SaveMeta &#12399;&#12475;&#12540;&#12502;&#12473;&#12525;&#12483;&#12488;&#12398;&#12513;&#12479;&#24773;&#22577;&#12434;&#20445;&#25345;&#12377;&#12427;
                POJO&#12290;
            </text>
            <text fill="#000000" font-family="sans-serif" font-size="13" lengthAdjust="spacing" textLength="514.2363"
                  x="668.5" y="332.124">- Gson &#12391;&#12398;&#12471;&#12522;&#12450;&#12521;&#12452;&#12474;/&#12487;&#12471;&#12522;&#12450;&#12521;&#12452;&#12474;&#12434;&#24819;&#23450;&#12375;&#12289;&#12487;&#12501;&#12457;&#12523;&#12488;&#12467;&#12531;&#12473;&#12488;&#12521;&#12463;&#12479;&#12434;&#25345;&#12388;&#12290;
            </text>
            <text fill="#000000" font-family="sans-serif" font-size="13" lengthAdjust="spacing" textLength="431.9517"
                  x="668.5" y="349.415">- playTimeSeconds &#12399;&#12475;&#12540;&#12502;&#26178;&#12395; Player
                &#12363;&#12425;&#35373;&#23450;&#12373;&#12428;&#12427;&#21487;&#22793;&#12501;&#12451;&#12540;&#12523;&#12489;&#12290;
            </text>
            <text fill="#000000" font-family="sans-serif" font-size="13" lengthAdjust="spacing" textLength="3.6118"
                  x="668.5" y="366.7061">&#160;
            </text>
            <text fill="#000000" font-family="sans-serif" font-size="13" lengthAdjust="spacing" textLength="247.127"
                  x="668.5" y="383.9971">- SaveMeta holds metadata for a save slot.
            </text>
            <text fill="#000000" font-family="sans-serif" font-size="13" lengthAdjust="spacing" textLength="534.0093"
                  x="668.5" y="401.2881">- Designed for Gson serialization/deserialization and therefore provides a
                default constructor.
            </text>
            <text fill="#000000" font-family="sans-serif" font-size="13" lengthAdjust="spacing" textLength="380.7642"
                  x="668.5" y="418.5791">- playTimeSeconds is a mutable field set from Player at save time.
            </text>
        </g><!--link SaveManager to SaveMeta-->
        <g class="link"
           id="lnk5">
            <path d="M325,91.2137 C325,110.0537 325,132.5737 325,163.9237" fill="none"
                  id="SaveManager-to-SaveMeta" style="stroke:#181818;stroke-width:1;stroke-dasharray:7,7;"/>
            <polygon fill="#181818" points="325,169.9237,329,160.9237,325,164.9237,321,160.9237,325,169.9237"
                     style="stroke:#181818;stroke-width:1;"/>
            <text fill="#000000" font-family="sans-serif" font-size="13" lengthAdjust="spacing" textLength="70.0781"
                  x="326" y="136.042">reads/writes
            </text>
        </g>
        <?plantuml-src VL9TQnD157tVNt4VspHDtlCW2A95gIt4Fp3DpYQ3cvrbPn9RfT2TGMneGH2gL13y26WjRP4yY1_G7tDDy6TuP_FHpIRuj7lFlUUUS-_Sc3KUioO7nReSdda0ZP0f1NKADxbc6GIm3dnNAArgi2Dbo5aqGLjn3KIa9r6RxMxC0G5hYAXPWxfEw3i1LPm8pH_mlI9EalvjNODGph0uP7kFH9lNUKD6lihbrcOMLrQBGC5hUMgpd7DOBfWhB_egprkQoeoxhwpExs8Dcbnln0wUpfz1cqvn0RsRQJiuju8iKnzBkbHkLfUOsbl6sfxVKu6j5WkMBfPONIbyOkrx-vuN_-SqM4IPXAfo4LGgjsuEfmO9PxwgFd6sbUT5KdD8HBEbGGQpCgzKUaW9LIfvwpTSJA_G_4Bx6-rhD3_GNg2rQ0ynlKJx0Stro3uVll-6vjMVwtUZunJJKpH7iBrrVmiF37MwfsH4NJuxWlcEzYkQZsZFqFJH_AoYVR68KhEH7GmltsBw1WzILsDFq9oXFNVAPe1sa7avp2XayDfHd7X_B5hOwTmKerE3wJcuPw15ONg4flVtoqKcHoh7P7_uychOxsMYdp8IwVPSv_ncMZAapctwzHc5WKo0ZHz8XL9NgFGELw8PSJ_BPNjGF14i54-P5ZAg-dmk1XRve5iyuLJF8KvaLr09TVLvm3gX1Xf6wQJJq3AfB9bIkDfsHxETa4CWUEYxUuCWaUtfk4oFBMgYLJnEWkuOl7y0?>
    </g>
</svg>